<svg width="25" height="24" viewBox="0 0 25 24" fill="none" xmlns="http://www.w3.org/2000/svg">
<g clip-path="url(#clip0_121_142)">
<path d="M13.5 8C13.5 5.79 11.71 4 9.5 4C7.29 4 5.5 5.79 5.5 8C5.5 10.21 7.29 12 9.5 12C11.71 12 13.5 10.21 13.5 8ZM11.5 8C11.5 9.1 10.6 10 9.5 10C8.4 10 7.5 9.1 7.5 8C7.5 6.9 8.4 6 9.5 6C10.6 6 11.5 6.9 11.5 8ZM1.5 18V20H17.5V18C17.5 15.34 12.17 14 9.5 14C6.83 14 1.5 15.34 1.5 18ZM3.5 18C3.7 17.29 6.8 16 9.5 16C12.19 16 15.28 17.28 15.5 18H3.5ZM20.5 15V12H23.5V10H20.5V7H18.5V10H15.5V12H18.5V15H20.5Z" fill="url(#paint0_linear_121_142)"/>
</g>
<defs>
<linearGradient id="paint0_linear_121_142" x1="12.5" y1="4" x2="12.5" y2="20" gradientUnits="userSpaceOnUse">
<stop stop-color="#84BE08"/>
<stop offset="1" stop-color="#00D1C2"/>
</linearGradient>
<clipPath id="clip0_121_142">
<rect width="24" height="24" fill="white" transform="translate(0.5)"/>
</clipPath>
</defs>
</svg>
