<svg width="25" height="25" viewBox="0 0 25 25" fill="none" xmlns="http://www.w3.org/2000/svg">
<path d="M13.2209 5.50302L11.7549 5.50002C8.41087 5.49202 5.50787 8.20902 5.48487 11.5V15.29C5.48487 16.08 5.38487 16.851 4.95387 17.508L4.66687 17.946C4.22987 18.61 4.69987 19.5 5.48487 19.5H19.5149C20.2999 19.5 20.7689 18.61 20.3329 17.946L20.0459 17.508C19.6159 16.851 19.5149 16.079 19.5149 15.289V11.501C19.4749 8.20902 16.5649 5.51102 13.2209 5.50302V5.50302Z" stroke="url(#paint0_linear_256_926)" stroke-width="2" stroke-linecap="round" stroke-linejoin="round"/>
<path d="M15.5 19.5C15.5 20.2956 15.1839 21.0587 14.6213 21.6213C14.0587 22.1839 13.2956 22.5 12.5 22.5C11.7044 22.5 10.9413 22.1839 10.3787 21.6213C9.81607 21.0587 9.5 20.2956 9.5 19.5" stroke="url(#paint1_linear_256_926)" stroke-width="2" stroke-linecap="round" stroke-linejoin="round"/>
<path d="M12.5 2.5C13.0304 2.5 13.5391 2.71071 13.9142 3.08579C14.2893 3.46086 14.5 3.96957 14.5 4.5V5.5H10.5V4.5C10.5 3.96957 10.7107 3.46086 11.0858 3.08579C11.4609 2.71071 11.9696 2.5 12.5 2.5Z" stroke="url(#paint2_linear_256_926)" stroke-width="2" stroke-linecap="round" stroke-linejoin="round"/>
<defs>
<linearGradient id="paint0_linear_256_926" x1="12.4997" y1="5.5" x2="12.4997" y2="19.5" gradientUnits="userSpaceOnUse">
<stop stop-color="#94D40B"/>
<stop offset="1" stop-color="#00D1C2"/>
</linearGradient>
<linearGradient id="paint1_linear_256_926" x1="12.5" y1="19.5" x2="12.5" y2="22.5" gradientUnits="userSpaceOnUse">
<stop stop-color="#94D40B"/>
<stop offset="1" stop-color="#00D1C2"/>
</linearGradient>
<linearGradient id="paint2_linear_256_926" x1="12.5" y1="2.5" x2="12.5" y2="5.5" gradientUnits="userSpaceOnUse">
<stop stop-color="#94D40B"/>
<stop offset="1" stop-color="#00D1C2"/>
</linearGradient>
</defs>
</svg>
