<svg width="18" height="20" viewBox="0 0 18 20" fill="none" xmlns="http://www.w3.org/2000/svg">
<path d="M15 14.0801C14.24 14.0801 13.56 14.3801 13.04 14.8501L5.91 10.7001C5.96 10.4701 6 10.2401 6 10.0001C6 9.76009 5.96 9.53009 5.91 9.30009L12.96 5.19009C13.5 5.69009 14.21 6.00009 15 6.00009C16.66 6.00009 18 4.66009 18 3.00009C18 1.34009 16.66 9.15527e-05 15 9.15527e-05C13.34 9.15527e-05 12 1.34009 12 3.00009C12 3.24009 12.04 3.47009 12.09 3.70009L5.04 7.81009C4.5 7.31009 3.79 7.00009 3 7.00009C1.34 7.00009 0 8.34009 0 10.0001C0 11.6601 1.34 13.0001 3 13.0001C3.79 13.0001 4.5 12.6901 5.04 12.1901L12.16 16.3401C12.11 16.5501 12.08 16.7701 12.08 17.0001C12.08 18.6101 13.39 19.9101 15 19.9101C16.61 19.9101 17.92 18.6101 17.92 17.0001C17.92 15.3901 16.61 14.0801 15 14.0801ZM15 2.00009C15.55 2.00009 16 2.45009 16 3.00009C16 3.55009 15.55 4.00009 15 4.00009C14.45 4.00009 14 3.55009 14 3.00009C14 2.45009 14.45 2.00009 15 2.00009ZM3 11.0001C2.45 11.0001 2 10.5501 2 10.0001C2 9.45009 2.45 9.00009 3 9.00009C3.55 9.00009 4 9.45009 4 10.0001C4 10.5501 3.55 11.0001 3 11.0001ZM15 18.0001C14.45 18.0001 14 17.5501 14 17.0001C14 16.4501 14.45 16.0001 15 16.0001C15.55 16.0001 16 16.4501 16 17.0001C16 17.5501 15.55 18.0001 15 18.0001Z" fill="#00A297"/>
</svg>
