<svg width="25" height="24" viewBox="0 0 25 24" fill="none" xmlns="http://www.w3.org/2000/svg">
<path d="M5.5 22H19.5C20.0304 22 20.5391 21.7893 20.9142 21.4142C21.2893 21.0391 21.5 20.5304 21.5 20V11C21.5008 10.8684 21.4755 10.7379 21.4258 10.6161C21.376 10.4943 21.3027 10.3834 21.21 10.29L13.21 2.29C13.0226 2.10375 12.7692 1.99921 12.505 1.99921C12.2408 1.99921 11.9874 2.10375 11.8 2.29L3.8 10.29C3.70551 10.3826 3.63034 10.4931 3.57885 10.6149C3.52735 10.7368 3.50055 10.8677 3.5 11V20C3.5 20.5304 3.71071 21.0391 4.08579 21.4142C4.46086 21.7893 4.96957 22 5.5 22ZM10.5 20V15H14.5V20H10.5ZM5.5 11.41L12.5 4.41L19.5 11.41V20H16.5V15C16.5 14.4696 16.2893 13.9609 15.9142 13.5858C15.5391 13.2107 15.0304 13 14.5 13H10.5C9.96957 13 9.46086 13.2107 9.08579 13.5858C8.71071 13.9609 8.5 14.4696 8.5 15V20H5.5V11.41Z" fill="url(#paint0_linear_199_1903)"/>
<defs>
<linearGradient id="paint0_linear_199_1903" x1="12.5" y1="1.99921" x2="12.5" y2="22" gradientUnits="userSpaceOnUse">
<stop stop-color="#94D40B"/>
<stop offset="1" stop-color="#00D1C2"/>
</linearGradient>
</defs>
</svg>
